<?xml version="1.0" encoding="UTF-8"?>
<svg id="Layer_2" xmlns="http://www.w3.org/2000/svg" width="773.57" height="558.52" xmlns:xlink="http://www.w3.org/1999/xlink" version="1.1" viewBox="0 0 773.57 558.52">
  <!-- Generator: Adobe Illustrator 29.8.3, SVG Export Plug-In . SVG Version: 2.1.1 Build 3)  -->
  <defs>
    <clipPath id="clippath">
      <path d="M354.44,147.66c7.8-7.98,19.79-7.83,26.77.33,6.98,8.17,6.31,21.26-1.49,29.24s-19.79,7.83-26.77-.34c-6.98-8.17-6.31-21.26,1.49-29.24v.01Z" fill="none"/>
    </clipPath>
    <clipPath id="clippath-1">
      <path d="M298.99,148.18c-3.16-13.92-16.3-22.02-29.36-18.09-13.06,3.93-21.08,18.4-17.92,32.33,3.16,13.92,16.3,22.02,29.36,18.09s21.08-18.4,17.92-32.33h0Z" fill="none"/>
    </clipPath>
  </defs>
  <g id="_Layer_">
    <g>
      <g>
        <g>
          <path d="M720.7,495.71c-48.15-.04-153.97,1.37-177.96,1.37v36.64h197.88c1.14-13.66-9.14-38-19.92-38.01h0Z" fill="#826a67"/>
          <path d="M512.65,533.71c-1.65-15.66,6.14-36.64,30.08-36.64s32.86,36.64,32.86,36.64h-62.94Z" fill="#826a67"/>
          <path d="M514.33,533.71c-.15-12.95,5.19-32.46,27.15-32.46s30.97,32.46,30.97,32.46h-58.13.01Z" fill="#f6af69"/>
        </g>
        <path d="M652.78,530.28c-20.78,2.69-42.19-1.12-57.97-6.74-23.07-8.22-47.57-39.15-44.28-66.97,4.76,6.04,12.82,11.75,18.34,12.58-9.15-12.54-20.38-48.83-13.45-82.22,3.03,29.05,24.44,32.35,29.8,39.27-11.2-33.61,6.72-61.58-4.66-77.71,19.8,8.26,30.93,25.64,35.04,46.06-3.56-28.19,2.91-76.63,35.72-88.21-14.13,19.26-1.83,48.78,5.99,77.26,1.78-1.34,3.92-9.16,8.9-12.18-3.51,11.94,5.66,29.32-4.31,51.18,11.26-17.84,28.97-20.15,26.85-48.85,20.73,19.79,25.7,49.51,22.03,71.81,3.35-.6,9.17-2.94,11.97-10.56,2.33,9.33,1.24,23-3.89,30.15,3.11-1.4,10.26-2.02,13.68,1.71-5.7.38-13.59,16.95-16.32,21.46-14.3,23.59-31.66,37.85-63.45,41.96h.01Z" fill="#ff5a52"/>
        <path d="M640.92,521.63c-14.02,0-50.66,0-62.27-30.87,4.76,6.18,14.85,3.55,22.46,6.49-19.27-10.5-26.26-43.73-26.27-53.56,13.48,19.75,22.31,14.6,35.56,31.04-9.93-22.66,1.65-41.86-8.08-54.58,10.35,2.31,21.48,17.25,25.47,28.81,8.14-11.55-7.89-51.95,5.7-72.66-1.07,19.12,27.23,42.43,20.62,73.3,6.81-2.23,19.79-12.97,23.46-23.8,3.83,8.89,2.72,37.17-8.56,49.35,9.45-6.93,23.93-4.83,28.03-16.15,2.85,8.41,1.96,30.63-10.67,38.52,3.19.03,7.1-.98,8.86-1.83-1.35,4.88-13.06,25.93-54.31,25.93v.01Z" fill="#ffc466"/>
        <path d="M623.3,514.41c-7.57-9.32-.5-17.69-12.49-26.18,6.02-1.1,13.67,3.15,15.36,5.01-6.15-12.12,4.32-28.38,1.99-33.04,8.05,4.87,4.15,22.08,9.57,28.54,2.84-8.87-4.72-27.21,2.26-39.13-.23,13.07,8.48,17.4,10.68,28.6,2.04-1.33.6-7.37,5.56-10.83-2.86,7.67,8.57,18.04,1.06,32.67,5.21-1.56,4.31-9.18,9.92-10.98-3.31,8.02,2.1,19.32-4.12,25.89-5.68,6-34.01,6.54-39.78-.56l-.01.01Z" fill="#fff"/>
        <path d="M722.09,418.74c4.32,7.07-2.47,10.96-3.03,14.14-4.11-6.73,3.93-11.09,3.03-14.14Z" fill="#ff5a52"/>
        <path d="M674.99,335.74c4.82,6.74-1.66,11.11-1.99,14.32-4.59-6.41,3.11-11.35,1.99-14.32Z" fill="#ff5a52"/>
        <path d="M665.57,288.55c1.23,8.19-6.54,9.14-8.3,11.84-1.17-7.8,7.94-8.68,8.3-11.84Z" fill="#ff5a52"/>
        <path d="M677.7,358.16c10.91,7.9,3.16,17.99,4.31,23.11-10.38-7.52-1.04-19.1-4.31-23.11h0Z" fill="#ff5a52"/>
        <path d="M597.47,334.02c-6.31,11.9,5.08,17.54,6.31,22.65,6.01-11.33-7.48-17.61-6.31-22.65Z" fill="#ff5a52"/>
        <path d="M607.31,310.33c-6.4,6.46-.13,12.33-.33,15.87,6.09-6.15-1.4-12.84.33-15.87Z" fill="#ff5a52"/>
        <path d="M564.29,381.35c-5.13,7.51,2.09,12.16,2.53,15.67,4.89-7.15-3.69-12.38-2.53-15.67Z" fill="#ff5a52"/>
        <path d="M545.59,434.7c-3.62,8.34,4.35,11.54,5.45,14.91,3.45-7.94-5.96-11.46-5.45-14.91Z" fill="#ff5a52"/>
        <g>
          <path d="M579.16,506.99c35.42,4.09,132.93-3.67,160.1-3.67v41.49h-180.46c-1.29-15.47,8.24-39.22,20.36-37.82Z" fill="#967e7a"/>
          <path d="M773.33,544.81c1.87-17.74-6.95-41.49-34.07-41.49s-37.21,41.49-37.21,41.49h71.28Z" fill="#967e7a"/>
          <path d="M769.05,544.81c1.6-15.17-5.94-35.48-29.13-35.48s-31.82,35.48-31.82,35.48h60.95Z" fill="#f6af69"/>
        </g>
      </g>
      <g>
        <path d="M647.93,242c18.34-6.8,40.66-15.49,48.94-19.06,3.67-1.58,4-4.49.07-3.56-2.84.68-30.57,9.69-50.74,16.08l1.72,6.54h.01Z" fill="#967e7a"/>
        <g>
          <path d="M656.07,258.01l29.49-9.81c5.42-1.76,7.07-11.63,3.68-22.03-3.39-10.41-10.54-17.41-15.96-15.65l-29.49,9.81,12.28,37.68Z" fill="#f5dcbe"/>
          <path d="M643.79,220.33c5.42-1.76,12.57,5.25,15.96,15.65,3.39,10.41,1.75,20.27-3.68,22.03-5.42,1.76-12.57-5.25-15.96-15.65-3.39-10.41-1.75-20.27,3.68-22.03h0Z" fill="#f5dcbe"/>
          <path d="M661.08,253.67c-.18,0-.37-.02-.55-.06-1.44-.3-2.37-1.72-2.07-3.17.8-3.79.34-8.76-1.25-13.64-1.58-4.86-4.14-9.13-7-11.73-1.09-.99-1.18-2.69-.18-3.78.99-1.09,2.68-1.18,3.78-.18,3.58,3.25,6.6,8.23,8.49,14.03,1.9,5.82,2.4,11.65,1.4,16.39-.26,1.26-1.38,2.13-2.62,2.13v.01Z" fill="#ddb99e"/>
        </g>
        <path d="M587.75,255.71c17.88-2.47,33.66-4.67,36.66-5.4,3.53-.87,11.34-3.8,23.36-8.26,1.68-.48-.88-7.04-3.02-6.24-9.3,2.94-13.2,4.32-16.1,5.07-7.5,1.94-24.41,3.81-43,5.59l2.11,9.24h-.01Z" fill="#967e7a"/>
        <g>
          <path d="M589.46,271.26l31.59-3.79c5.66-.71,9.13-10.09,7.75-20.95s-7.08-19.08-12.74-18.37l-31.59,3.79,4.99,39.32Z" fill="#f5dcbe"/>
          <path d="M584.46,231.94c5.66-.71,11.36,7.51,12.74,18.37,1.38,10.86-2.09,20.24-7.75,20.95-5.66.71-11.36-7.51-12.74-18.37-1.38-10.86,2.09-20.24,7.75-20.95h0Z" fill="#f5dcbe"/>
          <path d="M590.19,271.26c-1.16,0-2.23-.76-2.57-1.94-.41-1.42.41-2.9,1.83-3.31,4.03-1.15,6.09-9.3,5.11-15.27-.6-3.6-1.56-6.92-2.78-9.58-.62-1.34-.03-2.93,1.31-3.55,1.34-.62,2.93-.03,3.55,1.31,1.42,3.09,2.53,6.87,3.2,10.95,1.23,7.5-1.18,19.06-8.91,21.28-.25.07-.49.1-.74.1v.01Z" fill="#ddb99e"/>
        </g>
        <path d="M543.62,261.93c11.51-1.73,28.17-4.02,43.49-6.13,1.72-.37.42-9.56-1.47-9.33-14.74,1.41-30.54,2.78-43.55,4.08l1.53,11.38h0Z" fill="#967e7a"/>
        <path d="M542.08,250.55c-9.75.98-17.93,1.93-22.94,2.84-20.03,3.66-72.92,19.25-73.68,20.5-.69,1.14-.25,5.81,1.45,9.27,1.35,2.74,3.74,3.85,4.5,4.26,1.02.57,11.21-3.67,26.84-8.69,21.91-7.02,24.33-7.34,30.55-7.57,7.11-.27,10.9,2.31,13.08,3.32,3.48,1.6,11.67-2.39,9.98-4.13-2.05-2.11-5.54-4.94-2.7-5.79.5-.15,6.01-1.37,14.44-2.64,1.85-.31.34-11.57-1.53-11.38l.01.01Z" fill="#967e7a"/>
      </g>
      <g>
        <g>
          <path d="M376.15,493.36c11.36-21.52,27.53-20.92,34.02-14.3,2.93,15.42-25.46,35.61-34.02,14.3Z" fill="#ffc67b"/>
          <path d="M253.59,464.36c-2.47,12.51-5.59,62.52-4.49,68.48,1.1,5.96,1.86,14.68,18.2,12.6,12.12-1.54,27.85-5.25,40.83-6.91,30.77-3.92,79.41-.03,106.78-13.41,17.01-8.32,35.24-40.49,18.2-49.25-17.23-8.85-32.76,12.85-38.34,16.94-5.58,4.1-45.18-3.04-49.22-5.48s-24.08-19.39-32.28-30.58c-8.13.02-50.02,3.66-59.68,7.6v.01Z" fill="#ffc67b"/>
          <path d="M382.14,497.09c-1.17,0-2.31-.09-3.39-.31-1.45-.3-2.38-1.71-2.08-3.16.3-1.45,1.71-2.38,3.16-2.08,3.32.69,8.89-.46,12.45-1.89.87-.38,3.87-3,6.06-4.92,4.64-4.07,7.86-6.8,10.15-7.62,1.39-.49,2.92.22,3.42,1.61.5,1.39-.22,2.93-1.61,3.43-1.51.54-5.68,4.2-8.44,6.61-3.79,3.32-6.01,5.22-7.59,5.86-2.62,1.04-7.57,2.49-12.13,2.49v-.02Z" fill="#e89c49"/>
        </g>
        <g>
          <path d="M359.38,127.1c4.09,11.59,27.13,14.02,38.72,9.93s17.67-16.81,13.57-28.4c-4.09-11.59-16.81-17.67-28.4-13.57-11.59,4.09-27.98,20.45-23.89,32.04Z" fill="#875d57"/>
          <path d="M378.33,125.74c.88,3.84,10.06,5.42,16.3,3.21,7.53-2.66,9.27-10.24,7.6-14.96-1.67-4.72-7.13-7.42-11.89-5.86-11.13,3.66-12.63,14.89-12.01,17.61h0Z" fill="#ffc67b"/>
        </g>
        <path d="M396.46,122.89c-1.36-10.47-3.95-19.8-7.08-26.67-.14-1.24-.29-2.47-.45-3.66,2.11.12,3.84-.31,5.02-1.43,5.47-5.2-2.6-22.58-18.03-38.81-2.4-2.52-4.83-4.84-7.25-6.99,7.57-4.07,11.99-8.63,11.1-12.36-1.12-4.66-10.21-6.72-22.38-5.78-.57-13.79-4.17-23.92-9.35-24.33-4.78-.38-9.55,7.61-12.43,19.46-.16-.2-.28-.41-.44-.61-12.03-15.53-26.02-24.83-31.26-20.77-2.71,2.1-2.5,7.39-.04,14.13-6.53-4.66-16.96-9.13-29.14-12.06-21.77-5.22-40.85-3.51-42.62,3.84-.36,1.49.06,3.1,1.07,4.75-.6.12-1.2.23-1.81.36-21.87,4.8-38.29,14.68-36.67,22.05.32,1.48,1.38,2.73,2.98,3.77-1.31.65-2.63,1.33-3.95,2.05-19.67,10.7-32.69,24.75-29.08,31.39,1.29,2.37,4.55,3.45,9.06,3.4-1.16,1.93-2.34,3.81-3.47,5.85-4.61,8.34-7.83,18.95-11.29,29.89-1.29,1.03-2.58,2.09-3.87,3.21-16.91,14.68-26.6,31.2-21.66,36.9.17.2.39.34.59.5-6.65,1.11-14.34,3.33-22.28,6.64-20.67,8.62-35.06,21.26-32.15,28.23.51,1.23,1.56,2.19,3,2.91-6.73,2.9-14.53,7.71-22.23,13.99-17.36,14.15-27.56,30.36-22.79,36.22,1.78,2.19,5.41,2.62,10.16,1.56-3.94,6.39-5.22,11.76-2.88,14.63.84,1.02,2.09,1.64,3.66,1.92-3.35,2.69-6.75,5.76-10.1,9.19-15.64,16.03-23.93,33.3-18.53,38.57,2.01,1.96,5.64,1.98,10.21.41-3.14,3.4-6.28,7.27-9.29,11.54-12.89,18.31-18.33,36.68-12.16,41.02,1.81,1.27,4.42,1.17,7.52-.03-.35.92-.71,1.84-1.05,2.79-7.52,21.09-7.85,40.24-.74,42.78,1.45.52,3.11.27,4.89-.59-3.69,5-7.34,11.14-10.56,18.05-9.45,20.3-11.56,39.34-4.71,42.53,2.93,1.36,7.02-.41,11.48-4.46-.74,7.42.45,12.78,3.79,14.34,3.27,1.52,7.99-.88,13.05-5.97-3.11,7.17-5.47,17.37-6.3,28.82-1.62,22.33,3.17,40.88,10.7,41.43,6.15.45,12.22-11.25,15.13-27.72,3.32,18.53,10.46,32.04,17.1,31.28,3.32-.38,5.95-4.27,7.64-10.4,8.95,9.01,17.42,13.48,21.68,10.58,1.34-.91,2.12-2.51,2.45-4.59,6.6,5.26,12.42,7.45,15.71,5.21.26-.18.47-.42.7-.64,24.22,6.5,51.72,8.74,80.63,8.74,14.83,0,28.86-2.26,42.1-6.88.62,2.12,1.66,3.67,3.17,4.4,3.5,1.69,8.76-1.15,14.35-7.02.62,2.13,1.66,3.68,3.18,4.41,4.66,2.25,12.42-3.48,19.98-13.8.98,4.28,2.74,7.13,5.29,7.84,7.27,2.03,18.06-13.8,24.08-35.37,2.4-8.6,3.67-16.78,3.89-23.67,8.57-13.25,16.58-28.35,23.95-45.6,19.81-46.35,32.15-133.95,42.8-204.73,3.2-21.23,6.09-43.55,7.95-64.81,7.21-1.6,10.77-20.06,7.95-41.85l.03.02Z" fill="#875d57"/>
        <path d="M397.34,135.87c-1.43,0-2.61-1.13-2.67-2.57-.13-3.28-.42-6.67-.86-10.07-1.17-9.05-3.38-17.74-6.23-24.45-.57-1.36.06-2.93,1.42-3.51,1.35-.58,2.93.05,3.51,1.42,3.07,7.25,5.36,16.19,6.61,25.85.46,3.56.76,7.11.9,10.54.06,1.48-1.09,2.72-2.56,2.79h-.12Z" fill="#754f4b"/>
        <g>
          <path d="M401.88,517.79c13.98-19.91,29.96-17.27,35.56-9.88.96,15.67-29.76,32.11-35.56,9.88Z" fill="#ffc67b"/>
          <path d="M283.97,473.54c-4.03,12.1-13.44,61.31-13.11,67.36.34,6.05,0,14.8,16.46,14.8,12.22,0,28.29-1.69,41.38-1.69,31.01,0,78.78,10,107.62.18,17.92-6.1,40.07-35.71,24.27-46.56-15.97-10.96-34.12,8.6-40.17,11.97-6.05,3.36-44.43-8.72-48.13-11.65s-21.44-22.27-28.16-34.42c-8.07-1.01-50.08-2.69-60.17,0l.01.01Z" fill="#ffc67b"/>
          <path d="M410.67,522.45c-2.3,0-4.63-.25-6.63-.94-1.4-.48-2.14-2-1.67-3.4.48-1.39,2-2.14,3.4-1.66,3.19,1.09,8.87.66,12.59-.31.92-.27,4.22-2.49,6.64-4.11,5.12-3.45,8.65-5.74,11.02-6.27,1.45-.3,2.87.58,3.19,2.03.32,1.44-.59,2.87-2.03,3.19-1.57.35-6.16,3.44-9.2,5.49-4.18,2.82-6.63,4.43-8.28,4.86-2.07.54-5.51,1.13-9.03,1.13v-.01Z" fill="#e89c49"/>
        </g>
        <g>
          <path d="M210.94,109.2c-4.35,12.32-28.84,14.91-41.16,10.55-12.32-4.35-18.78-17.87-14.43-30.19s17.87-18.78,30.19-14.43,29.75,21.74,25.4,34.07Z" fill="#875d57"/>
          <path d="M183.09,124.39c-5.27,0-10.3-.74-14.21-2.12-3.35-1.19-6.37-2.99-8.96-5.35-1.09-.99-1.17-2.69-.17-3.78,1-1.1,2.69-1.18,3.78-.17,2.06,1.88,4.46,3.31,7.14,4.26,4.17,1.48,9.94,2.11,15.82,1.7,1.43-.15,2.75,1.01,2.85,2.49.1,1.47-1.02,2.75-2.49,2.85-1.26.08-2.51.13-3.75.13l-.01-.01Z" fill="#754f4b"/>
          <path d="M209.35,99.16c-.99,0-1.93-.55-2.4-1.49-4.49-9.09-15.07-17.47-22.3-20.02-2.21-.78-4.51-1.19-6.83-1.21-1.48-.01-2.67-1.22-2.65-2.7.01-1.47,1.21-2.65,2.68-2.65h.02c2.92.03,5.8.53,8.57,1.51,8.39,2.97,20.16,12.26,25.31,22.69.66,1.33.11,2.93-1.21,3.58-.38.19-.79.28-1.18.28l-.01.01Z" fill="#754f4b"/>
          <path d="M190.79,107.76c-.93,4.09-10.69,5.77-17.33,3.42-8-2.83-9.85-10.89-8.08-15.91s7.58-7.89,12.64-6.23c11.84,3.89,13.43,15.83,12.77,18.72Z" fill="#ffc67b"/>
        </g>
        <path d="M415.39,252.31c32.65-6.03,39.95.37,49.02-.1,12.69-.65,25.69-4.22,27.69-3.15,4.23,2.28-1.21,20.66-14.24,25.87s-50.11-.52-60.53-2.47c-3.58-9.45-3.55-16.9-1.94-20.16v.01Z" fill="#ffc67b"/>
        <path d="M398.17,328.43c47.61-8.22,57.66,13.98,77.54,9.77,7.69-1.63,11.85-13.22,15.23-24.89,14.13-3.99,28.36-34.34,23.91-39.95-4.46-5.63-64.1-20.12-113.81-11.88-8.61,15.52-8.47,58.32-2.88,66.94l.01.01Z" fill="#ffc67b"/>
        <path d="M308.42,262.16c46.75-1.09,70.34-14.38,78.79-32.61,9.03-19.47,2.06-39.64-2.09-58.79-2.15-9.91.88-33.74-2.22-49.74-5.03-25.92-14.31-33.43-26.99-32.05-9.06.99-15.67,12.26-18,19.24-26.91-34.83-57.06-38.64-75.45-31.37-27.23,10.76-35.6,38.78-43.98,50.88-9.28,13.41-13.9,18.36-18.61,27.34-9.1,17.35-11.21,29.16-6.24,50.03,6.49,27.24,49.56,58.58,114.79,57.06v.01Z" fill="#ffc67b"/>
        <path d="M281.89,105.41c.61,3.63-4.98,7.59-12.49,8.85-7.51,1.26-14.09-.66-14.69-4.29-.61-3.63,4.98-7.59,12.49-8.85,7.51-1.26,14.09.66,14.69,4.29Z" fill="#875d57"/>
        <path d="M361.87,117.62c-1.09,2.35,1.96,6.09,6.82,8.35,4.86,2.26,9.68,2.19,10.78-.16,1.09-2.35-1.96-6.09-6.82-8.35-4.86-2.26-9.68-2.19-10.78.16Z" fill="#875d57"/>
        <path d="M349.86,188.92c.84,4.99-6.55,7.39-15.88,8.95-9.34,1.57-17.1,1.71-17.93-3.28-.84-4.99,5.79-11.91,15.13-13.47,9.34-1.57,17.86,2.81,18.69,7.8h-.01Z" fill="#121b38"/>
        <path d="M288.29,189.04c-.57,4.21-9,6.54-18.82,5.21-9.82-1.33-17.32-5.82-16.75-10.03.57-4.21,9-6.54,18.82-5.21,9.82,1.33,17.32,5.82,16.75,10.03Z" fill="#ff7171"/>
        <path d="M363.77,188.44c1.18,3.68,7.35,5,13.79,2.94s10.71-6.71,9.53-10.39-7.35-5-13.79-2.94-10.71,6.71-9.53,10.39Z" fill="#ff7171"/>
        <path d="M412.2,430.35c-1.6-2.35-3.25-4.59-4.91-6.7,2.33-.33,4.09-1.18,5.03-2.66,3.28-5.09-3.78-15.75-16.42-26.02,3.83-.31,6.54-1.51,7.62-3.69,3.34-6.77-10.22-20.3-30.3-30.21s-39.06-12.46-42.41-5.69c-.34.68-.46,1.44-.46,2.25-31.05-3.07-67.01,2.88-73.52,28.05-.84,3.23-1.37,6.73-1.69,10.39-2.45,3.69-4.84,7.8-7.05,12.25-9.96,20.05-12.56,39.03-5.8,42.39,2.02,1,4.64.47,7.59-1.25-7.12,16.03-8.7,29.93-3.13,33.01,3.24,1.79,8.3-.43,13.89-5.45,1.33,18.27,6.8,31.97,13.36,31.97,3.68,0,7.01-4.33,9.47-11.33,7.66,19.57,18.87,33.14,25.65,30.67,3.02-1.1,4.65-5.21,4.97-11.16,7.22,14.58,16.03,23.81,21.72,21.74,5.42-1.97,6.42-13.63,3.18-28.41,6,9.32,12.35,14.58,16.79,12.97,3.29-1.2,4.94-5.99,5.02-12.85,3.62,6.69,7.69,10.52,11.38,9.9,2.79-.47,4.96-3.42,6.39-8.08,3.97,8.54,8.69,13.62,12.89,12.92,4.92-.82,7.89-9.37,8.29-21.42,2.62,3.23,5.31,4.92,7.83,4.49,6.91-1.16,10.01-17.52,7.47-37.5,3.57,1.69,6.6,2.02,8.65.63,6.24-4.25,1.08-22.7-11.52-41.21h.02Z" fill="#875d57"/>
        <path d="M271.07,510.71c-.5,0-1.01-.14-1.46-.43-6.23-4.08-9.72-16.41-11.13-28.09-6.35,4.43-10.51,3.98-13,2.61-7.34-4.06-5.07-18.18-.27-30.95-1.71.13-3.1-.25-4.09-.75-9.03-4.49-5.34-23.92,2.33-41.18.6-1.34,2.18-1.95,3.53-1.36,1.35.6,1.96,2.18,1.36,3.53-8.58,19.31-8.3,32.49-4.84,34.21,1.06.52,2.86.11,5.05-1.17,1-.59,2.27-.46,3.14.31.86.77,1.13,2.02.66,3.08-7.77,17.5-7.14,27.99-4.28,29.58,1.47.83,5.18-.04,10.81-5.1.76-.68,1.84-.87,2.79-.49s1.59,1.27,1.67,2.29c1.2,16.56,5.62,26.63,9.2,28.98,1.24.81,1.59,2.47.78,3.7-.51.78-1.37,1.21-2.24,1.21l-.01.02Z" fill="#754f4b"/>
        <path d="M329.6,215.39c-14.07,0-28.19-4.39-37.34-10.37-1.24-.8-1.59-2.47-.78-3.7s2.48-1.59,3.7-.77c16.31,10.66,48.98,15.08,65.13-1.92,1.02-1.08,2.71-1.12,3.78-.1,1.07,1.01,1.12,2.71.1,3.78-8.95,9.44-21.76,13.09-34.6,13.09l.01-.01Z" fill="#754f4b"/>
        <g>
          <path d="M357.95,140.05c10.05-5.11,21.82-1.09,26.28,8.99s-.08,22.4-10.13,27.51c-10.05,5.11-21.82,1.09-26.28-8.99s.08-22.4,10.13-27.51Z" fill="#121c39"/>
          <g clip-path="url(#clippath)">
            <g>
              <path d="M354.44,147.66c7.8-7.98,19.79-7.83,26.77.33,6.98,8.17,6.31,21.26-1.49,29.24-7.8,7.98-19.79,7.83-26.77-.34-6.98-8.17-6.31-21.26,1.49-29.24v.01Z" fill="#fff"/>
              <path d="M361.89,154.25c5.68-7.21,15.39-8.24,21.69-2.29,6.29,5.94,6.79,16.6,1.1,23.81-5.68,7.21-15.39,8.24-21.69,2.29-6.29-5.94-6.79-16.6-1.1-23.81Z" fill="#121c39"/>
              <path d="M356.12,150.34c2.91-2.98,7.69-3.04,10.68-.13,2.99,2.91,3.04,7.69.13,10.68s-7.69,3.04-10.68.13c-2.99-2.91-3.04-7.69-.13-10.68Z" fill="#fff"/>
              <path d="M368.74,165.99c1.26-1.29,3.33-1.32,4.62-.06,1.29,1.26,1.32,3.33.06,4.62s-3.33,1.32-4.62.06c-1.29-1.26-1.32-3.33-.06-4.62Z" fill="#fff"/>
            </g>
          </g>
        </g>
        <g>
          <path d="M293.97,137.01c-7.36-12.32-22.72-16.07-34.31-8.37-11.58,7.69-15,23.92-7.64,36.24s22.72,16.07,34.31,8.37c11.58-7.69,15-23.92,7.64-36.24h0Z" fill="#121c39"/>
          <g clip-path="url(#clippath-1)">
            <g>
              <path d="M298.99,148.18c-3.16-13.92-16.3-22.02-29.36-18.09-13.06,3.93-21.08,18.4-17.92,32.33,3.16,13.92,16.3,22.02,29.36,18.09,13.06-3.93,21.08-18.4,17.92-32.33h0Z" fill="#fff"/>
              <path d="M302.49,153.28c-1.24-11.56-10.95-19.2-21.7-17.07-10.75,2.13-18.46,13.22-17.22,24.78s10.96,19.2,21.7,17.07c10.75-2.13,18.46-13.22,17.22-24.78Z" fill="#121c39"/>
              <path d="M275.71,145.86c-1.11-5.16-6.19-8.45-11.36-7.34-5.16,1.11-8.45,6.19-7.34,11.36,1.11,5.16,6.19,8.45,11.36,7.34,5.16-1.11,8.45-6.19,7.34-11.36Z" fill="#fff"/>
              <path d="M286.41,162.19c-.48-2.24-2.68-3.66-4.92-3.18-2.24.48-3.66,2.68-3.18,4.92s2.68,3.66,4.92,3.18c2.24-.48,3.66-2.68,3.18-4.92Z" fill="#fff"/>
            </g>
          </g>
        </g>
        <path d="M315.87,181.8c-.53,0-1.07-.16-1.54-.49-1.21-.85-1.5-2.52-.65-3.73,4.78-6.78,20.32-10.17,27.72-6.05,1.29.72,1.76,2.35,1.04,3.64s-2.35,1.76-3.64,1.03c-4.97-2.76-17.56-.06-20.74,4.46-.52.74-1.35,1.13-2.19,1.13v.01Z" fill="#e89c49"/>
        <path d="M465.87,307.23c-1.28-5.49-12.22-7.91-26.74-6.68,7.9-4.41,12.44-9.29,11.5-13.34-.75-3.23-4.86-5.4-11.08-6.39,3.66-2.35,5.73-4.95,5.55-7.57-.11-1.52-.98-2.92-2.44-4.2,9.72-3.18,15.87-7.59,15.56-12.07-.26-3.74-4.97-6.81-12.36-8.77,3.79-2.65,5.84-5.48,5.49-8.19-.87-6.65-15.78-10.31-34.65-9.03,1.15-2.33,1.41-4.42.62-6.12-3.19-6.84-22.23-4.72-42.52,4.75-6.45,3.01-12.24,6.4-17.05,9.84-4.01-2.01-11.24-2.17-20.02-.59-.05-.41-.12-.81-.27-1.19-2.75-7.03-21.88-6.13-42.74,2.02-13.72,5.36-24.73,12.51-29.9,18.79-50.96-5.22-68.72-34.8-80.96-51.93-5.56,9.51-9.5,19.43-12.05,29.47-6.73,4.02-14.92,16.51-20.62,32.49-7.52,21.09-7.85,40.24-.74,42.78,2.69.96,6.06-.61,9.62-4.05.06.58.11,1.15.18,1.74,2.64,22.24,10.86,39.54,18.35,38.65,1.41-.17,2.69-.96,3.82-2.29,7.81,13.03,16.58,20.88,21.89,18.58,2.52-1.09,3.89-4.32,4.22-8.94.36.31.72.61,1.08.91,2.23,5.07,5.16,10.49,8.74,15.94,12.3,18.71,27.39,30.51,33.7,26.36,2.99-1.97,3.44-7.18,1.82-14.09,7.03,6.13,13.34,8.83,16.88,6.5,1.75-1.15,2.62-3.45,2.72-6.52.96.48,1.92.95,2.91,1.41,20.3,9.45,39.34,11.56,42.53,4.71.64-1.37.56-3.01-.09-4.82,16.04,5.65,29.49,6.12,32.12.47.44-.95.52-2.04.33-3.22,3.37.07,6.89,0,10.53-.25,22.34-1.56,40.02-8.93,39.49-16.47-.02-.29-.12-.57-.19-.85,4.74-1.12,9.82-2.69,15-4.72,20.86-8.15,35.54-20.46,32.79-27.49-1.17-2.99-5.32-4.53-11.29-4.71.01-.21.03-.43.04-.65,17.56-5.43,29.72-13.89,28.23-20.29v.02Z" fill="#875d57"/>
        <path d="M249,401.74c-9.34,0-22.86-13.18-32.89-28.43-2.44-3.72-4.63-7.48-6.54-11.23-1.19,2.47-2.8,3.7-4.21,4.31-6.28,2.74-15.02-3.61-23.62-17.03-.9.5-1.85.82-2.84.93-3.46.43-8.61-1.37-13.73-12.16-3.26-6.87-5.78-15.94-7.2-25.81-3.7,2.3-6.54,2.18-8.44,1.5-3.25-1.16-7.1-5.05-6.89-17,.15-8.36,2.28-18.73,6.01-29.2.5-1.39,2.01-2.14,3.42-1.62,1.39.5,2.12,2.03,1.62,3.42-3.55,9.94-5.57,19.7-5.71,27.5-.14,7.83,1.71,11.29,3.34,11.87,1.52.53,4.08-.76,6.87-3.46.74-.71,1.82-.94,2.77-.59.96.35,1.64,1.22,1.75,2.24l.17,1.71c1.24,10.47,3.77,20.11,7.12,27.16,3.36,7.08,6.59,9.28,8.27,9.14.69-.08,1.4-.54,2.11-1.37.56-.65,1.41-.97,2.26-.92.86.07,1.63.55,2.07,1.29,8.38,13.98,15.9,18.66,18.54,17.5,1.39-.6,2.36-3.09,2.62-6.68.07-1.01.71-1.89,1.64-2.28.92-.39,2-.22,2.77.44l1.05.89c.32.27.57.6.73.98,2.27,5.16,5.14,10.39,8.53,15.55,12.7,19.31,26.24,28.05,29.99,25.59,1.4-.91,2.31-4.35.68-11.24-.27-1.13.23-2.3,1.22-2.9,1-.61,2.26-.49,3.14.27,6.88,6,11.8,7.48,13.65,6.28.9-.59,1.44-2.15,1.52-4.38.03-.91.52-1.74,1.3-2.2.79-.47,1.75-.5,2.56-.1.94.46,1.88.93,2.84,1.38,9.56,4.45,19.1,7.38,26.85,8.23,7.8.86,11.4-.65,12.13-2.23.31-.66.25-1.59-.18-2.78-.35-.97-.11-2.06.62-2.79.73-.73,1.81-.97,2.78-.64,17.38,6.13,27.47,4.73,28.81,1.86.19-.41.23-.97.12-1.66-.13-.78.1-1.58.62-2.18s1.35-.91,2.07-.92c3.48.07,6.94-.02,10.29-.25,12.61-.88,24.32-3.74,31.33-7.64,1.3-.72,2.92-.25,3.64,1.03.72,1.29.25,2.92-1.04,3.64-7.78,4.33-20,7.36-33.56,8.31-2.65.18-5.36.28-8.09.29-.11.57-.29,1.12-.54,1.65-3.6,7.72-17.92,6.39-31.41,2.25-.1.73-.31,1.43-.62,2.1-1.46,3.14-5.67,6.62-17.57,5.29-8.23-.91-18.23-3.95-28.2-8.56-.62,2.12-1.74,3.72-3.34,4.77-3.57,2.33-8.69,1.4-14.76-2.61.21,5.97-1.86,8.83-3.94,10.2-1.34.88-2.87,1.3-4.52,1.3l.02-.01Z" fill="#754f4b"/>
        <path d="M390.2,241.91c-.97,0-1.9-.53-2.38-1.45-.68-1.31-.16-2.93,1.15-3.6,7-3.62,12.14-5.17,23.88-7.21,1.47-.3,2.84.72,3.1,2.17.25,1.46-.72,2.84-2.18,3.09-11.25,1.96-15.84,3.33-22.35,6.7-.39.2-.81.3-1.23.3h.01Z" fill="#754f4b"/>
        <path d="M245.45,279.75c-.66,0-1.32-.24-1.83-.73-1.07-1.01-1.13-2.71-.11-3.78l2.2-2.36c4.73-5.09,8.14-8.77,16.65-14.5,1.22-.82,2.89-.5,3.71.73.83,1.22.5,2.89-.72,3.71-8,5.39-11.07,8.69-15.72,13.7l-2.22,2.38c-.53.56-1.24.84-1.95.84l-.01.01Z" fill="#754f4b"/>
        <path d="M399.42,367.77c-9.59,0-18.65-.83-23.58-1.68-1.46-.25-2.43-1.64-2.18-3.09.26-1.45,1.64-2.47,3.09-2.17,4.83.84,14.52,1.67,24.32,1.59h.03c1.47,0,2.66,1.18,2.68,2.65s-1.17,2.69-2.65,2.7c-.57,0-1.14.01-1.71.01v-.01Z" fill="#754f4b"/>
        <path d="M411.28,334.24c-.88,0-1.66-.01-2.3-.04-1.48-.06-2.63-1.31-2.57-2.78s1.33-2.57,2.78-2.57c5.36.22,18.87-.49,25.89-3.09,1.38-.52,2.93.19,3.44,1.58.51,1.38-.19,2.93-1.58,3.44-7.26,2.7-19.26,3.46-25.66,3.46h0Z" fill="#754f4b"/>
        <path d="M441.48,271.69c-.22,0-.45-.03-.68-.09-6.43-1.69-14.48-3.23-18.04-2.99-1.48.23-2.76-.99-2.87-2.46s.99-2.76,2.46-2.87c5.57-.43,16.57,2.3,19.81,3.15,1.43.37,2.28,1.83,1.91,3.27-.32,1.2-1.4,2-2.59,2v-.01Z" fill="#754f4b"/>
        <path d="M368.67,48.02c-.46,0-.93-.12-1.35-.37-4.02-2.35-9.95-5.31-15.38-6.03-1.47-.2-2.49-1.54-2.3-3.01.2-1.46,1.53-2.48,3-2.3,6.32.84,12.94,4.12,17.38,6.72,1.27.75,1.7,2.39.96,3.66-.5.85-1.39,1.32-2.31,1.32v.01Z" fill="#754f4b"/>
        <path d="M327.99,35.73c-.78,0-1.54-.33-2.07-.98-3.4-4.15-17.02-14.59-21.1-15.76-1.42-.4-2.24-1.89-1.84-3.3.41-1.42,1.9-2.23,3.31-1.84,5.87,1.68,20.35,13.35,23.77,17.52.94,1.14.77,2.83-.37,3.76-.5.41-1.1.61-1.69.61l-.01-.01Z" fill="#754f4b"/>
        <path d="M275.35,19.09c-.24,0-.49-.03-.73-.1-8.91-2.54-21.96-4.09-38.81-4.6-1.48-.05-2.64-1.28-2.59-2.76.05-1.48,1.46-2.54,2.76-2.59,17.29.53,30.79,2.14,40.12,4.8,1.42.41,2.24,1.89,1.84,3.3-.34,1.18-1.41,1.94-2.57,1.94l-.02.01Z" fill="#754f4b"/>
        <path d="M197.69,40.48c-.92,0-1.82-.48-2.31-1.33-.74-1.27-.31-2.92.96-3.66,7.46-4.35,22.34-8.48,34.63-9.62,1.49-.12,2.77.95,2.91,2.42s-.95,2.77-2.42,2.91c-11.62,1.07-25.56,4.91-32.43,8.91-.42.25-.89.37-1.35.37h.01Z" fill="#754f4b"/>
        <path d="M82.6,191.45c-.95,0-1.87-.51-2.36-1.4-.7-1.3-.22-2.93,1.08-3.63,11.75-6.36,18.9-8.51,28.75-10.46,1.44-.31,2.86.65,3.15,2.11.28,1.45-.66,2.85-2.11,3.14-9.32,1.84-16.09,3.89-27.24,9.92-.41.22-.84.32-1.27.32Z" fill="#754f4b"/>
        <path d="M48.53,259.77c-.74,0-1.48-.31-2.01-.91-.98-1.11-.87-2.8.24-3.78,7.48-6.57,20.53-14.95,28.49-18.31,1.36-.56,2.93.07,3.51,1.43.57,1.36-.07,2.93-1.43,3.51-7.4,3.12-20.04,11.25-27.04,17.4-.51.44-1.14.66-1.77.66h.01Z" fill="#754f4b"/>
        <path d="M19.29,405.46c-.51,0-1.03-.15-1.49-.45-1.23-.83-1.55-2.49-.73-3.71,4.41-6.57,11.6-14.91,16.23-17.44,1.29-.7,2.92-.23,3.63,1.07.71,1.3.23,2.92-1.07,3.63-3.3,1.8-9.74,8.85-14.35,15.72-.52.77-1.36,1.19-2.22,1.19v-.01Z" fill="#754f4b"/>
        <path d="M32.35,469.95c-.3,0-.61-.05-.91-.16-1.39-.5-2.11-2.04-1.6-3.42,2.39-6.59,6.85-16.41,10.77-22.43.81-1.24,2.46-1.59,3.7-.78,1.24.8,1.59,2.46.78,3.7-3.66,5.63-8,15.19-10.22,21.34-.39,1.09-1.42,1.77-2.52,1.77v-.02Z" fill="#754f4b"/>
        <path d="M51.84,510.73c-1.32,0-2.46-.97-2.65-2.31-.77-5.57-.55-17.26.01-20.62.24-1.46,1.61-2.45,3.08-2.2,1.46.24,2.44,1.62,2.2,3.08-.45,2.7-.71,13.82.01,19.01.2,1.46-.82,2.81-2.28,3.01-.12.02-.25.03-.37.03Z" fill="#754f4b"/>
        <path d="M76.61,533.36c-1.02,0-1.99-.58-2.44-1.57-1.81-3.97-6.93-17.92-7.24-21.44-.13-1.47.95-2.77,2.42-2.9,1.44-.07,2.77.96,2.9,2.42.21,2.27,4.74,15.2,6.78,19.7.61,1.35.02,2.93-1.33,3.54-.36.16-.73.24-1.1.24l.01.01Z" fill="#754f4b"/>
        <path d="M257.4,543.15c-.5,0-1-.14-1.45-.43-1.24-.8-1.6-2.46-.79-3.7,3.69-5.69,6.08-11.47,6.73-16.27.2-1.46,1.56-2.53,3.01-2.29,1.46.2,2.49,1.55,2.29,3.01-.76,5.56-3.44,12.12-7.54,18.45-.51.79-1.37,1.22-2.25,1.22v.01Z" fill="#754f4b"/>
        <path d="M407.29,426.32c-.51,0-1.02-.15-1.48-.44-4.5-2.99-10.24-6.12-15.73-8.59-1.35-.61-1.95-2.19-1.34-3.54.61-1.35,2.2-1.95,3.54-1.34,5.75,2.59,11.77,5.87,16.5,9.01,1.23.82,1.57,2.48.75,3.71-.51.78-1.36,1.2-2.23,1.2l-.01-.01Z" fill="#754f4b"/>
        <path d="M415.08,473.6c-1.35,0-2.51-1.01-2.66-2.38-.42-3.77-4.79-19.01-9.68-25.72-.87-1.2-.61-2.87.59-3.74,1.2-.86,2.87-.61,3.74.59,5.74,7.88,10.23,24.28,10.68,28.29.16,1.47-.9,2.79-2.36,2.95-.1.01-.2.02-.3.02l-.01-.01Z" fill="#754f4b"/>
        <path d="M314.11,519.83c-.96,0-1.88-.51-2.36-1.42-2.93-5.51-8.63-25.92-8.77-29.52-.06-1.47,1.09-2.72,2.57-2.78,1.37.06,2.72,1.09,2.78,2.57.11,2.78,5.69,22.61,8.14,27.21.69,1.31.2,2.93-1.1,3.62-.4.21-.83.31-1.25.31l-.01.01Z" fill="#754f4b"/>
        <path d="M377.98,511.2c-1.32,0-2.47-.97-2.65-2.31-.42-3.13-1.29-6.49-2.4-10.75l-.9-3.5c-.36-1.43.5-2.89,1.94-3.25,1.42-.38,2.89.5,3.25,1.93l.89,3.47c1.15,4.43,2.06,7.93,2.52,11.37.2,1.47-.83,2.82-2.29,3.01-.12.02-.24.03-.36.03h0Z" fill="#754f4b"/>
        <path d="M339.02,513.17c-.86,0-1.7-.41-2.21-1.17-1.47-2.15-3.49-6.95-5.6-12.1-.52-1.27-.94-2.28-1.17-2.79-.62-1.34-.03-2.93,1.31-3.55,1.35-.62,2.93-.03,3.55,1.31.25.54.7,1.63,1.26,2.99,1.33,3.23,3.8,9.25,5.08,11.12.83,1.22.52,2.88-.71,3.72-.46.31-.98.46-1.5.46l-.01.01Z" fill="#754f4b"/>
        <path d="M399.78,506.6h-.15c-1.47-.08-2.61-1.34-2.53-2.81.14-2.61-.55-10.05-1.67-14.31-.38-1.43.48-2.89,1.91-3.27,1.42-.39,2.89.48,3.27,1.91,1.21,4.59,2.02,12.61,1.84,15.95-.08,1.43-1.26,2.53-2.67,2.53h0Z" fill="#754f4b"/>
        <path d="M363.26,320.52c-5.15,0-11.95-2.65-20.3-7.92-1.25-.79-1.62-2.44-.83-3.69s2.45-1.61,3.69-.84c13.83,8.74,18.97,7.18,20.22,6.5,1.19-.65,1.8-1.95,1.82-3.87.03-4.32-3.29-10.86-8.69-13.91-1.12-.63-1.63-1.97-1.22-3.2.42-1.22,1.66-1.94,2.92-1.78,13.51,1.99,20.41-.56,22.21-3.34.74-1.14.65-2.44-.26-3.88-3.09-4.89-13.86-9.14-30.18-6.96-1.32.23-2.56-.64-2.93-1.91s.26-2.62,1.46-3.17c10.69-4.86,11.3-7.47,11.3-7.49-1.32-1.41-12.84-1.84-22.2,3.2-1.3.69-2.92.21-3.62-1.09-.7-1.3-.21-2.92,1.09-3.62,9.11-4.9,22.24-6.22,27.54-2.78,2.4,1.55,2.61,3.61,2.53,4.71-.11,1.5-.81,3.56-4.38,6.29,12.4.52,20.72,4.92,23.91,9.98,2.03,3.22,2.12,6.73.22,9.66-2.89,4.45-9.77,6.66-19.26,6.45,3.02,3.85,4.92,8.58,4.89,12.89-.03,3.89-1.66,6.92-4.6,8.53-1.52.83-3.3,1.24-5.35,1.24h.02Z" fill="#754f4b"/>
        <path d="M307.94,366.05c-5.28,0-13.04-4.08-23.53-12.37-1.16-.91-1.36-2.6-.44-3.76.92-1.16,2.6-1.35,3.76-.44,15.78,12.45,20.5,11.39,21.26,11.05.2-.08.79-.35.94-1.96.49-5.65-5.74-18.08-12.56-22.57-1-.66-1.44-1.89-1.08-3.03.36-1.14,1.51-1.91,2.61-1.88,8.49.2,11.89-.58,13.19-1.07-2.46-2.35-12.09-6.37-18.45-6.61-1.48-.06-2.63-1.3-2.57-2.77.06-1.48,1.42-2.58,2.77-2.58,7.28.28,24.26,5.79,24.06,12.45-.11,3.58-3.85,5.43-12.25,5.86,5.71,6.59,10.15,16.42,9.6,22.66-.37,4.17-2.75,5.8-4.14,6.41-.93.4-1.99.61-3.16.61h-.01ZM312.59,330.69h.05-.05Z" fill="#754f4b"/>
        <path d="M216.12,310.88c-8.69,0-21.71-11.12-28.08-21.1-2.63,2.48-5.07,3.09-7.28,1.81-6.21-3.6-3.32-21.26.32-29.68.59-1.36,2.15-1.99,3.52-1.39,1.36.59,1.98,2.16,1.39,3.52-3.91,9.02-4.11,20.84-2.58,22.85.1-.24,1.15-.88,2.95-3.29.56-.75,1.49-1.12,2.39-1.07.93.09,1.75.65,2.16,1.49,5.62,11.47,21.61,23.42,26.32,21.32,2.01-.91,3.3-7.56-4.65-26.73-.57-1.36.08-2.93,1.45-3.5,1.36-.57,2.93.08,3.5,1.45,8.11,19.57,8.74,30.58,1.91,33.66-1,.45-2.12.67-3.31.67l-.01-.01ZM183.52,287.01h.05-.05Z" fill="#754f4b"/>
        <path d="M357.73,471.21c-4.03,0-8.02-4.29-12.38-13.41-3.5,5.14-8.5,8.96-13.24,7.88-5.73-1.34-8.27-8.88-7.57-22.43.08-1.48,1.29-2.69,2.81-2.53,1.48.07,2.61,1.33,2.53,2.81-.61,11.77,1.47,16.49,3.44,16.95,2.3.51,7.22-3.67,9.83-9.72.42-.98,1.39-1.61,2.46-1.61,1.07-.04,2.05.65,2.47,1.64,6.26,14.92,9.63,15.08,9.67,15.08.08,0,.65-.34,1.27-1.86,2.57-6.25,1.52-20.29-2.82-24.6-.9-.89-1.05-2.3-.35-3.36.7-1.06,2.05-1.48,3.22-1.02,9.17,3.62,11.05,2.37,11.07,2.36.55-1.66-4.43-9.84-12.61-15.92-1.19-.88-1.43-2.56-.55-3.75.88-1.18,2.57-1.43,3.74-.55,6.6,4.91,17.49,16.67,14.02,22.9-1.87,3.37-6.32,3.32-10.92,2.16,2.67,7.71,2.41,18.29.15,23.8-1.85,4.51-4.54,5.08-6.23,5.18h-.01Z" fill="#754f4b"/>
        <path d="M287.06,459.45c-.27,0-.55-.02-.84-.06-7.72-1.1-12.15-18.48-10.67-32.14.16-1.47,1.5-2.53,2.95-2.37,1.47.16,2.53,1.48,2.37,2.95-1.51,13.92,3.62,25.91,6.1,26.26h.01c.42,0,2.81-2.06,4.56-12.02.26-1.45,1.64-2.47,3.1-2.17,1.46.26,2.43,1.64,2.17,3.1-1.92,10.92-5.2,16.44-9.76,16.44l.01.01Z" fill="#754f4b"/>
        <path d="M255.49,63.75c-.17,0-.34-.02-.51-.05-11.3-2.2-14.56-7.12-13.85-10.99.78-4.21,6.48-7.62,17.36-7.34-6.86-5.86-7.31-8.96-6.72-11.05.44-1.59,1.86-3.54,6.11-3.81,10.32-.5,36.33,9.5,41.9,22.81.57,1.36-.07,2.93-1.44,3.5-1.36.56-2.93-.07-3.5-1.43-3.13-7.49-15.8-14.68-26.7-17.9-6.13-1.81-9.74-1.82-11.04-1.49.5,1.08,2.67,4.26,12.17,10.83,1.03.71,1.43,2.05.96,3.21-.48,1.17-1.73,1.88-2.93,1.62-15.13-2.63-20.67.8-20.9,2.01-.11.62,1.91,3.27,9.61,4.77,1.45.29,2.4,1.69,2.11,3.14-.25,1.27-1.37,2.16-2.62,2.16l-.01.01Z" fill="#754f4b"/>
        <path d="M137.24,231.54c-2.18,0-4.16-.51-5.75-1.6-2.61-1.8-5.69-6.11-1.09-15.77-10.62,3.44-17.61,3.46-20.82.05-1.96-2.08-2.19-5.18-.63-8.48,3.8-8.04,18.61-18.53,36.3-17.36,1.48.1,2.59,1.37,2.49,2.85-.1,1.48-1.36,2.61-2.85,2.49-15.78-1-28.41,8.61-31.11,14.31-.43.92-.74,2.06-.31,2.52,1.16,1.24,7.22,1.99,21.93-3.89,1.09-.43,2.34-.11,3.07.8.74.91.79,2.2.14,3.18-6,8.93-5.96,13.61-4.09,14.9,2.87,1.99,11.4-.44,16.1-7.06.85-1.2,2.52-1.48,3.73-.63,1.2.85,1.49,2.52.63,3.73-4.34,6.11-11.76,9.96-17.75,9.96h.01Z" fill="#754f4b"/>
        <path d="M67.61,315.91c-.64,0-1.18-.09-1.64-.24-1.1-.33-3.03-1.34-3.54-4.33-.95-5.55,3.86-16.1,10.36-24.63-6.19,1.88-10.45,1.69-12.75-.57-.89-.88-2.74-3.41-.59-7.81,2.98-6.09,13.14-13.67,24.55-12.23,1.46.19,2.49,1.54,2.3,3-.19,1.46-1.49,2.49-3,2.3-7.43-.99-14.47,3.15-17.83,7.4-1.66,2.11-1.72,3.36-1.64,3.56h0s3.33,2.26,18.85-5.59c1.24-.62,2.76-.2,3.49.99.73,1.19.42,2.74-.7,3.56-11.05,8.08-19.22,26.65-17.67,29.43-.08-.17,4.69.62,24.76-20.63.78-.83,2-1.08,3.03-.61,1.04.46,1.67,1.53,1.58,2.66-.71,8.71,1.84,13.4,4.5,14.07,2.45.62,6.3-1.94,9.41-9.02.6-1.35,2.17-1.96,3.53-1.37,1.35.6,1.97,2.17,1.37,3.53-4.66,10.62-11.12,13.21-15.62,12.06-4.63-1.17-7.68-6.01-8.46-12.93-14.33,14.49-20.8,17.4-24.28,17.4h-.01Z" fill="#754f4b"/>
        <path d="M117.44,384.03c-.52,0-1.05-.15-1.51-.47-1.22-.84-1.53-2.5-.69-3.72,7.83-11.4,39.05-33.22,58.47-36.35,1.45-.21,2.83.76,3.06,2.22.24,1.46-.76,2.83-2.22,3.07-17.9,2.87-47.74,23.66-54.91,34.09-.52.75-1.36,1.16-2.21,1.16h.01Z" fill="#754f4b"/>
        <path d="M188.25,422.37c-1,0-2.07-.05-3.24-.17-1.47-.15-2.54-1.46-2.4-2.93.15-1.47,1.43-2.53,2.93-2.39,5.84.54,8.74-.71,9.51-2.11.61-1.11.18-2.82-1.12-4.47-2.69-3.4-8.61-5.97-15.75-4-1.21.32-2.45-.2-3.05-1.29-.6-1.08-.38-2.43.53-3.27,10.55-9.68,9.87-12.63,9.86-12.65-.08-.09-.63-.42-2.02-.53-7.14-.62-23.6,5.45-31.31,12.58-1.08,1-2.78.94-3.78-.15s-.94-2.78.15-3.78c9.39-8.68,29.96-16,37.94-13.51,3.08.96,3.98,3.07,4.24,4.24.69,3.11-1.25,7.12-6.07,12.39,5.95.44,10.76,3.26,13.44,6.65,2.7,3.41,3.3,7.28,1.62,10.35-1.08,1.98-3.97,5.03-11.5,5.03l.02.01Z" fill="#754f4b"/>
        <path d="M135.58,494.48c-1.26,0-2.57-.33-3.87-.98-6.79-3.4-13.29-15.14-15.84-27.46-3.56,5.72-6.97,8.57-10.33,8.66-1.41.13-4.18-.42-6.15-4.05-2.99-5.49-3.05-16.82,1.35-23.2.84-1.22,2.5-1.54,3.72-.68,1.22.84,1.52,2.5.68,3.72-3.06,4.44-3.19,13.68-1.06,17.6.21.39.92,1.36,1.29,1.26.15,0,3.62-.25,9.64-13.08.52-1.11,1.71-1.73,2.95-1.48,1.2.24,2.09,1.27,2.15,2.5.62,13.83,8.16,28.5,13.99,31.42,1.49.76,2.14.31,2.41.12.97-.66,5.66-5.3,3.28-32.27-.1-1.18.58-2.28,1.68-2.72,1.1-.43,2.35-.1,3.09.83,5.29,6.71,11.61,8.86,13.28,7.76.88-.56,1.08-3.55-1.95-9.46-.67-1.31-.16-2.93,1.16-3.6,1.32-.69,2.92-.16,3.6,1.16,5.53,10.76,2.43,14.9.09,16.41-3.7,2.38-9.64.78-15.1-3.6.83,16.55-1.22,26.6-6.1,29.92-1.2.81-2.53,1.22-3.94,1.22h-.02Z" fill="#754f4b"/>
        <path d="M83.35,377.36c-.54,0-1.07-.07-1.61-.22-4.81-1.33-6.99-8.52-6.12-19.07-3.73,3.23-7.3,4.68-10.44,4.24-2.56-.39-4.55-2.05-5.47-4.57-1.51-4.14.08-9.57,4.13-14.17.98-1.1,2.68-1.21,3.77-.24,1.11.98,1.22,2.67.24,3.78-3.07,3.49-3.77,7-3.12,8.79.31.86.82,1.05,1.23,1.11,1.99.26,6.16-1.82,11.43-8.8.76-1,2.1-1.33,3.24-.83,1.14.52,1.77,1.75,1.52,2.98-2.94,14.38-.5,21.2,1.01,21.61,1.28.38,8.19-3.79,17.66-30.8.49-1.39,2.01-2.14,3.41-1.64,1.39.49,2.13,2.01,1.64,3.41-5.6,16-13.93,34.41-22.52,34.41v.01Z" fill="#754f4b"/>
        <path d="M190.66,508.77c-2.6,0-6.75-1.87-7.29-13.58-.07-1.48,1.07-2.73,2.55-2.79,1.48-.22,2.73,1.07,2.8,2.54.28,6.16,1.67,8.26,2.13,8.51,1.17-.4,4.62-6.51,4.13-18.07-.05-1.2.71-2.29,1.85-2.65,1.14-.38,2.39.07,3.05,1.08,8.26,12.61,11.65,12.48,11.67,12.45.17-.09.86-1.02,1-3.79.36-7.29-3.42-18.64-8.82-22.32-1.22-.84-1.54-2.5-.7-3.72s2.5-1.53,3.72-.7c8.51,5.8,12.42,22.09,10.8,29.82-.95,4.55-3.54,5.69-5.01,5.97-3.47.69-7.53-1.98-12.49-8.25-1.03,9.04-4.52,15.3-9.16,15.51h-.24l.01-.01Z" fill="#754f4b"/>
        <path d="M296.28,291.36c-.83,0-1.66-.39-2.18-1.12-.86-1.2-.58-2.87.62-3.73,6.63-4.75,8.38-7.24,8.84-8.18-3.12-.87-15.21,2.13-19.45,7.8-.88,1.18-2.56,1.43-3.75.54-1.18-.89-1.42-2.57-.54-3.75,4.98-6.66,18.46-11.24,24.9-9.77,3.17.71,4.03,2.7,4.26,3.82.72,3.57-2.72,7.85-11.15,13.89-.47.34-1.02.5-1.55.5h0Z" fill="#754f4b"/>
        <path d="M376.47,81.7c-1.31,0-2.45-.96-2.64-2.29-.21-1.46.8-2.82,2.26-3.04,1.14-.17,1.9-.37,2.39-.55-2.52-1.87-11.13-4.24-19.35-1.2-1.14.43-2.42.03-3.12-.97-.7-.99-.64-2.34.15-3.27,1.9-2.25,2.11-3.57,2.04-3.85-.52-.2-3.65.63-5.9,4.85-.69,1.3-2.31,1.8-3.62,1.1-1.3-.7-1.8-2.31-1.1-3.62,3.07-5.76,7.67-7.6,10.66-7.56,2.23.08,4.05,1.24,4.87,3.08.4.91.64,2.13.31,3.69,8.34-1.12,16.15,1.39,19.16,4.26,2.24,2.13,1.88,4.23,1.63,5.04-1.07,3.38-5.79,4.07-7.33,4.29-.13.02-.26.03-.39.03l-.02.01Z" fill="#754f4b"/>
      </g>
    </g>
  </g>
  <metadata>
    <sfw xmlns="http://ns.adobe.com/SaveForWeb/1.0/">
      <slices/>
      <sliceSourceBounds x="-0.04" y="0.01" width="773.61" height="558.52" bottomLeftOrigin="true"/>
    </sfw>
  </metadata>
  <metadata><?xpacket begin="﻿" id="W5M0MpCehiHzreSzNTczkc9d"?>
<x:xmpmeta xmlns:x="adobe:ns:meta/" x:xmptk="Adobe XMP Core 9.1-c003 1.000000, 0000/00/00-00:00:00        ">
   <rdf:RDF xmlns:rdf="http://www.w3.org/1999/02/22-rdf-syntax-ns#">
      <rdf:Description rdf:about=""
            xmlns:xmp="http://ns.adobe.com/xap/1.0/"
            xmlns:xmpGImg="http://ns.adobe.com/xap/1.0/g/img/"
            xmlns:xmpTPg="http://ns.adobe.com/xap/1.0/t/pg/"
            xmlns:stDim="http://ns.adobe.com/xap/1.0/sType/Dimensions#"
            xmlns:xmpG="http://ns.adobe.com/xap/1.0/g/"
            xmlns:dc="http://purl.org/dc/elements/1.1/">
         <xmp:CreatorTool>Adobe Illustrator 29.8 (Macintosh)</xmp:CreatorTool>
         <xmp:CreateDate>2025-11-27T00:18:52-05:00</xmp:CreateDate>
         <xmp:Thumbnails>
            <rdf:Alt>
               <rdf:li rdf:parseType="Resource">
                  <xmpGImg:width>256</xmpGImg:width>
                  <xmpGImg:height>188</xmpGImg:height>
                  <xmpGImg:format>JPEG</xmpGImg:format>
                  <xmpGImg:image>/9j/4AAQSkZJRgABAgEAAAAAAAD/7QAsUGhvdG9zaG9wIDMuMAA4QklNA+0AAAAAABAAAAAAAAEA&#xA;AQAAAAAAAQAB/+4ADkFkb2JlAGTAAAAAAf/bAIQABgQEBAUEBgUFBgkGBQYJCwgGBggLDAoKCwoK&#xA;DBAMDAwMDAwQDA4PEA8ODBMTFBQTExwbGxscHx8fHx8fHx8fHwEHBwcNDA0YEBAYGhURFRofHx8f&#xA;Hx8fHx8fHx8fHx8fHx8fHx8fHx8fHx8fHx8fHx8fHx8fHx8fHx8fHx8fHx8f/8AAEQgAvAEAAwER&#xA;AAIRAQMRAf/EAaIAAAAHAQEBAQEAAAAAAAAAAAQFAwIGAQAHCAkKCwEAAgIDAQEBAQEAAAAAAAAA&#xA;AQACAwQFBgcICQoLEAACAQMDAgQCBgcDBAIGAnMBAgMRBAAFIRIxQVEGE2EicYEUMpGhBxWxQiPB&#xA;UtHhMxZi8CRygvElQzRTkqKyY3PCNUQnk6OzNhdUZHTD0uIIJoMJChgZhJRFRqS0VtNVKBry4/PE&#xA;1OT0ZXWFlaW1xdXl9WZ2hpamtsbW5vY3R1dnd4eXp7fH1+f3OEhYaHiImKi4yNjo+Ck5SVlpeYmZ&#xA;qbnJ2en5KjpKWmp6ipqqusra6voRAAICAQIDBQUEBQYECAMDbQEAAhEDBCESMUEFURNhIgZxgZEy&#xA;obHwFMHR4SNCFVJicvEzJDRDghaSUyWiY7LCB3PSNeJEgxdUkwgJChgZJjZFGidkdFU38qOzwygp&#xA;0+PzhJSktMTU5PRldYWVpbXF1eX1RlZmdoaWprbG1ub2R1dnd4eXp7fH1+f3OEhYaHiImKi4yNjo&#xA;+DlJWWl5iZmpucnZ6fkqOkpaanqKmqq6ytrq+v/aAAwDAQACEQMRAD8A9U4q7FXYq7FXYq7FXYq7&#xA;FUi8zed/LfluMHVLsJMwrHax/HMw8Qg6D3agwGQDOGMy5PG/zF/N2TzFp66do8E1hAJQ8k7y8WlQ&#xA;AjgyRjYVNftnKpTtyseHh3LzMPdowYBag1BUkEEZW3Mg0Tz75y0oj6nqdxEi9IXf1ov+Ak5L+GSE&#xA;iGJxxPMIzzr+YupeZrfTGvYRDdaeZOUsBIRufDi/A1KsOG5r92JlbGGMRtmX5c/nNJbQtp/mOZri&#xA;BI2a0v2PKSqKW9KQ9W5Uorda9facZ97Xkw3uFL8s/wAwfMGofmB6eoXckttq3qKbdmJiiZUMkfpr&#xA;+zTjx28d8EJG05cYEduj3TLnDdirsVdirsVdirsVdirsVdirsVdirsVdirsVdirsVdirsVdirsVd&#xA;irsVdiqU+Y/NWheXbP61qtysKtX0oh8UkhHZEG5/UO+AkBlGBlyfKer3t7qeqXd9POztcSvJzfdy&#xA;Cdq+G3YZjkuwAoUhUiCGvJifc1wMlOeVldQrhR36E1xQW/VlQVcB0/nXFVZWDAEGoOKVixBXLKaA&#xA;9V7VxVVjurq1mSe2Z0lQ1WWNijqfEEb4oL1/8kbnzrql/Jfz6hPNoMAeGZLmUy8puIKoiuWKleQY&#xA;kUy2FuNn4QPN7RlriuxV2KuxV2KuxV2KuxV2KuxV2KuxV2KuxV2KuxV2KuxV2KuxV2KuxVK/NGuL&#xA;oXl++1YxmX6pGXWMftMSFUH25EVwE0GUI2afLWu69qeuanLqGpTGa5lP+xVeyIv7KjsMxybdhGIA&#xA;oIDAyaxVRjg4mjBWXsSN8UUrAACgFB4YpaSNUrx6E1piq7FVKWcRmlCT1PsMUWybyD58uvK+sLcw&#xA;uZbKYhb20rQOniAf21/ZP8MlGVMMkBIPqCxvbW+s4L21kEttcIssMg6FWFQcyHAIpXxQ7FXYq7FX&#xA;Yq7FXYq7FXYq7FXYq7FXYq7FXYq7FXYq7FXYq7FXYq8u/OPzfq9tPaeV9GJS71GPncOtORjdiiRq&#xA;T9nkVbkfDKcuThDk6fHe7yLXvIut6Zb/AF27iV4iR6k0TcihPTl0+/pmHi1UJmg5ssZDH43dX9OT&#xA;c/sN45kMEVb289zPHbwIZJpWCxovUk9BgJAFlIepeW/y502yiSbVEW8vCKmNt4U9gv7XzP3Zqc2t&#xA;lLaOwciOMDmypbCxWP01t4hH/IEUD7qZh8Z72ykk1nyH5f1JGKQCzuP2ZrcBd/8AKQfCf1++ZGPV&#xA;zj1sMJYwXl/mHy5qGh3YhulDRvUwzr9hwPDwI7jNrhzRyCw0SiQraL5L1vWbc3FtEi21aLLMeKsR&#xA;147EmnjTI5dTCBo80xgSl2s+X7/SrtYL+ExOPijIIKsPEMOuWY8sZiwxlGub3n8jb15PJ5tJriKS&#xA;SCeQwQJKjukDhWHJVZiv7xn2NMy8fJwc49T0XJtDsVdirsVdirsVdirsVdirsVdirsVdirsVdirs&#xA;VdirsVdirsVdirwb84vMekW3nrT7+wk+sXunIIr5FA9MFHLKnMftUdg2223fYY2eAmCHO01xFqOp&#xA;/mb5evdHubZYZmmuYnjETBOILKRu3Lt8s1WPRTjIGxs5pygh5rQVBpuOmbRoek/lj5dVIW1q4T95&#xA;JWO0B7KNnf6Tt/t5q9dm34B8W/FHqyLzavmdrKNNA4+qzETmqK/Gm3EvRfn3zG0/h362c76Jf5O0&#xA;zzlb3Lza1dMbcqQttI4lYtXZqjkFp7HLdTPERUBuxgJdWW5hNiD1fSbLVbGSzvE5RONmH2kbsyns&#xA;RlmPIYGwgi1aGG2s7RIolEVvboFUdlVRkSTI31KeTEPOFzonmHy5cS2FxHcXGn0nUCocLUB9iA1O&#xA;J+8Zm6aM8cxxCgWuZBGzz3QHv9Pjl1rTrkwXWm3EWw2NJQxU+4qhDLm0OSpAd7jcNgvq/S7z69pl&#xA;pe8eH1qGObh4eogan45mB1pFFE4odirsVdirsVdirsVdirsVdirsVdirsVdirsVdirsVdirsVYF+&#xA;b/nSfy7oUdrYuU1LUy0cUo2McSgeo4/yviAX517ZCcqDdhhxHd86MSxJbcnqT3yhzlgijBqFAPjT&#xA;FU68r+Xp9c1RLZarbp8dzKP2U/q3QZTnzDHG+rKMbL2y3ght4I4IVCQxKEjQdAqigGaEkk2XKYzq&#xA;svmrzJ5o/wAH+VrgaabaFLrXddaP1fq0cpIihiQ/CZpeJIqR8O4zbdn6KMo8c9x0DgavUmJ4Y82O&#xA;efdZ8sflnq0Wmz+YfNN5rLxpcc5xbXdmUY8atHMLbmvwnaJ1Nf2wc2x0OPIPpiPds4Q1M4nmWa+U&#xA;fM+n+ZtBt9XsXDRy1WRRWqSIaOpBoevSvahzmtTpzimYl3GHKJxsJxmO2JdrnmHR9Etkn1Kf0lmc&#xA;RQRKrSSyyN0SKKMM7sfBRl2HBPIaiLYZMkYCyWIk+Ug94/6LvtE1S6trkW0Go21zZCYGJvUEKyhY&#xA;2IHVV3HWmbCeHPCuLeNjzaIZscjtzSr8tPy+vPNV5O8k4g0aCSI3oFecjANxVNvAneu1e+bGMLNt&#xA;GXLwvpOONI41jjULGgCoo2AAFABmQ4C7FXYq7FXYq7FXYq7FXYq7FXYq7FXYq7FXYq7FXYq7FVK7&#xA;vLWztpLq7mSC2hHKWaRgqqPEk4pAt5Z5m/PrTrZ3t/L9r9dddvrdxVIa/wCSgo7D5lcrOTuciGnP&#xA;V5V5p84655nuYp9VkRzAGWFI41QKGIJFQOR6ftE5UZEuRCAjySTAzdir2ryZoSaRokMbLS6nAluW&#xA;78mGy/7EbZotTl45+TlQjQT3Mdk7ywq6Fb+c9ZitTdX8jLqCwr8JmigsEjihD0ahMlvJ225Z0fZ0&#xA;xLEI9367dRrIkTJ73zN+YnnC5/Nq+1HzBJJY6FaeXbFfqunXNxWe4DSmoiPBTJIxPQCg2HeubiEe&#xA;HZwSbeg/843Wt3F5Iu5pQVguL6RrevQhY40ZgPDkpH0ZznbUgcoHdF2/Z4PAfe9YzTucl1lLoug6&#xA;jr/nvzAeVvo1vBa2PFTJJBFJ8U8kcYPWd5FQtTolK0rnRdmRHhUOZLqdaTx79z50/Mbz95w1bzTL&#xA;qlpfam3lLWbppNEtbl5Pq0scLiNvShkLRgpIKVAqp8Dm4EBw0XB4jdh9Q/kz5bu9G8qGW8T07jUZ&#xA;frITuIiiiOtO5oW+nMGAoOVnlcmeZNpdirsVdirsVdirsVdirsVdirsVdirsVdirsVdirsVdir54&#xA;/O3zbe3/AJmfR7edZdMsQnCOFwYzKVq7SUNOakladvvymZ3c3BGhfV50gmrV2FP5QMrb3NNEpoWF&#xA;cVXggio6HFUbo0Uc2sWMUlPTkuIkevSjOAa5DKaiT5Jjze95zrluxVC3nmDUdFljuLOFZAwIkZwS&#xA;tKj4TSnXM3RzMZWD8G3HpIZxUi8q1r8sPy213Xxfx6dd6X9Zk5XFpZ3CfVyzGp4RtCWQE9Qr0Ham&#xA;bifaUxHYC/Npl2ABZ4vsp6tpum2OmafBp+nwrb2dsgjghToqj57n3J65zuTJKcjKRslYxERQ5PGv&#xA;N/556PpWrT6dZWD6zLbO0dxeSTGCL1FJDLEqq5YA7ctvbbNrpuxZTiJTNW4eXtIRNRDOPy48/aJ+&#xA;YPlrWNOudNeG3lhFlqlqz8qxyq/ptFPxBqPiP2dj9+GUZ6GY34oljcdSO4hgeh/k/Dp3mO3m+uXG&#xA;q2enys+n2FzFwWMluQ50d12O5oFqd/bMvP2kJQIG19XN0/Y0IHjySseT6q0xVXTrVV+ysMYAHgFA&#xA;75kY5cUQe8OkyCpEeaJybB2KuxV2KuxV2KuxV2KuxV2KuxV2KuxV2KuxV2KrZpooYnmmdY4o1LyS&#xA;MQFVVFSST0AGKvBPzH/Ny91eWXS9Cla20lapJcLVZbjsd+qxnw6nv4ZTKd8nMxYa3PN5plbkKFwx&#xA;BVSSqH7TD9WKC1E8XMIidqliMVRGKV9vM8E8c6fbiZXX5qajARYpXv1ndw3dpDdQnlFOiyIfZhXO&#xA;dlEg0XMBtWyKuxVasMStyVFVvEAA4bLIyJYzLqHnXSp5PrFims2JYtHNakRzopOytEftU/yfvzJE&#xA;MUhseE+bVch5sOm0L8qpdQkvLryffLe3Ds8iPDOAXJq1IhL6fXwXM0ZtQI0Mgoe79TjnDiu+FkFk&#xA;2s3FoNM8r6IPLemsayXk0aQsAaVKQJ+2QPtGv0dcx5cIPFklxy/HVtiNqiKDNoY2jhjjZzIyKFMj&#xA;U5MQKcjTucwSd25m+iknS7cnrxp9AJAzpdGf3UXTan+8KNzJaHYq7FXYq7FXYq7FXYq7FXYqh5r+&#xA;0i2aQE+C7n8MrlliOrMQJVYpo5Yw8Z5Ke+TjIEWGJFL8KHYq7FXYq8w/PnV9StdCstPtQ4ttQkf6&#xA;3KoNOMXErGT/AJbPX345XkOzkaeIu3gpIAqTQeOUuY5WVhVTUHvireKqTRyeoXRgOQoajFC6OPgD&#xA;uSTuSfHFK/FWZeRvOy6VTTtQJNgxrFL1MTE77fynr7Zg6rS8fqjzbYTrYvU4ZopollhdZInFUdCG&#xA;Ug9wRmpII5t67ArsVSTUvOnlvT2KTXiySjrHDWQ18CVqo+k5kQ02SXIMTMBLIfzQ8tyTLGUuY1Y0&#xA;9V0TgPc0ctT6MtOhmB0Y+KE3Pm/yyOX+5KD4BU0auwFdvH6Mp/L5O4suMMR1v8035NFo8ACjb61O&#xA;Kk+6xjp9J+jMzFoOsi1yy9zFrn8xfOlwQF1e8UIKKsErW6CntFwH4ZsojhFDkHGMQTdM98r/AJ6T&#xA;6do1tZ6rZzajdx8vVu2mHJgWJUbqSeK7bnLBkaZaezs9D8mfmf5f803DWdsstrfqhk+rzAfEopyK&#xA;MpINK96HLIzBaZ4jFl+SanYq7FXYq07KilmNFUVJ9hgJpQErfX4VcII/iavEFgCQPoOY51Pk3jC3&#xA;FrRaVRIgVCaE16e+COo33U4dkq1jzLo1xfx6Zb6hG88isBHC3L4qGvxLVQQB3OOov4JwhC2MsjI8&#xA;UprJC3Et4jscxW8o610q31C5T6zJN6UFXEEcrxxu1RQyKhHKlNq5k6c7kNOXkyXMtxnYq7FXYqxf&#xA;8zL2G08j6sXultHmgaKFmJq7uP7tQN6uKj8emRlybMQ9QfLIhZzym38E7DMdz1UADYYpbxV2KuxV&#xA;osoYLXc9BireKpronmfWdGb/AEKciImrW7/FGf8AY9vmKZTlwRnzDKMiGZ2f5uWCxgalZyRydjbk&#xA;SBj/AKrFCPvOYM+zz/CW0Zh1Yx5j87atrLtGrm2sei2yGlR/xYw+1+rMvDpYw8y1ymSx7Mlg7FVI&#xA;3MVaAk/IYotUVgyhhuD0xS3iq0ugNCwB8CcVZN+X/mTU9C1+KfTbWO8nuKQtG6Fm4Mfi4MCCvz+/&#xA;bBKfCCWMsYls98fzRfkUWONfehP8c1p7TydAGQ0UO8pfd/mXp2khotREk92fijihQABSP2mJUfrO&#xA;Z+izynEmXe4+owCJqKQ3f51XjvxsdLRQTRTLIzk7/wAqhP15l8bT4S+Pzh+al+qm10n0uXRhbOq0&#xA;6bNMxGNleGIVTafnNexMJp47aMipQ/VwaU/4rV2wEGlBiCi7CDUbe3sINRmW4v1d+UqEmqEk9SFP&#xA;TbpmDIi9nJHJOgCSABUnYDIoRNt5J0GwhB060jiuV39Zqs5r1+JqkfRmdkx2NnGjk33X2vl6VZ5Z&#xA;pZAvqlaqBUjiKZVHTnq2SzDom1rZw2wPpg1bqx65kQxiPJolMlXybF2KuxVTubmC1tpbm4cRQQI0&#xA;ksjdFRRVifkBioD5h8/edbzzVrT3LFksISUsbYnZUr9ojpzfq33dsx5St2GPHwhiVwzAhdwh3Yr1&#xA;+WRZlq247sqcV8SdzioRGKWiaAnwxVTtwfS5HqxLH6cUBY0ipcEuafCAPpOKqzsQhZdyBUYpcjBl&#xA;DDuK4qtSKjl2PJz09hircjOoHBeTHp4fTiqkjzGXiSCB9ug2H04oV8UrJIi4Cq3Be4A64qp0lhSo&#xA;IdF7UoaYoVwQQCOh3xS00aN9pQfnir0f8qLnSo4biyTbUHYzEFAP3YotFfcn5GmazXxlYP8AC3Yq&#xA;ehZrW5ZLDDMhSZFkQ9VcBh9xyQkRuFItVsfyx8t6hDFeSJNbPzLcYH4qwB2qGDU6fs0zoNEZSxgy&#xA;dVqZcM6DPwKADw8d8zXEdiqEOk6cbg3BgUzMKFt/1VplfhR7mfiSqrV0t4ENUjVSO4ArkhADoxMi&#xA;VTJIa5Ly41HIioHegxWm8VdirsVdiqQeftJv9X8oalp1hIkV1Oi8XkbgnFZFdwW7ckUjIyFhnjIE&#xA;gS+WZ4vSmeLmsnBivqIaq1DSqnaozHdihrlqIFrQMaE+2KCsZXlSiDjGo+EeOFV6PI7KApVV+3Ud&#xA;T4YFVHBKMB1IIGKVKGdKJHQ8qUPzGKLVmVWFCK12xSoj1IvhoZI+1OoxQut1ZYgGFDvt9OKhVxS7&#xA;FWsVbxVTLxvyj5b9COhxVShiViwclihp12woROBLsVTzy15pbQXeSCzimmkHF5nLc+HXitDQD6Mx&#xA;8+DxOZZxlT1ry/q41fSYNQ9EwetyrGTWhVipodqjbNPmx8EjFyImxae6bps97MFUERA/vJOwH9cs&#xA;0+mlllQ5d7XmzCA82ZxRJFGsaCiIAFHsM6SMREUOQdLKRJsrskh2KuxVbDLFNEksTh4pAGR1NQQd&#xA;wQcANplEg0eaD1DW9OsJ4LeeSt1dMEt7ZBykck02HYe52yMsgiaPMt2LTTyAyA9MeZ6N2ekwW19d&#xA;Xxd5bq6IDPIahY1rxjQdFUV+k4xgASepXJnMoiHKMfv7yjcm0OxV2KuxV5f+eHnGTTtMi0Czfjda&#xA;ipe6YHdbcGnH/no1R8gfHK8kujkYIWbeD5S5jRAPUVxVvFXYq7FVG42Cv/IQT8sUFVG++KW8Vdir&#xA;sVdiqFkd43IV2ZuvEiuFCJUkqCRQkbjAla8Ub/aWvviraIiCiigxVtjQE0rTsMVUvWkP2Yj9O2KG&#xA;c/l15Z0fXJ5RcJPcXVsgme2CgRca03Kks259sxdTLKB6Rt9rOJj1eqQW/Hhbwx8QtEjiUUoBsAAM&#xA;01GRrq5JIAtnGm2v1WyigP2lFX/1juc6bT4vDgIulzT45EonL2p2KuxVa8sUbIruFaVuEYJpyaha&#xA;g8TRScFpESbrokzva+VPKzFnMsNhG3p8tixZjwTv3YLlW2OHuc0CWrz9xmf7S848h6hcat5+jvr+&#xA;T1Ll1ldSegPAgKo7AKTQZgaaRllsvSdqYhi0hhAVHb73sLuiIzuwVFBLMTQADckk5tXjgL2DeKHY&#xA;q7FXYq+efzr0zWU84XWo3EEg02UQRWdyR+7NIQWQHx5h9soyDdzcBHDTz3IN6jNIUdK1Cb1p3Phi&#xA;h0cxZHdhQKTt8sVbgDenybqx5ffioXu6oKsaDFKkTLKCFHBD3bqfoxQ1xlhAYMXReq07YqvNxHVQ&#xA;DXl38MVtVxS7FVrlgpKip7DFVCWVGTmPhkQ1oevyxQiAagHxxS3irRIHU0xV1R44qyryv+W3mrzC&#xA;6Nb2rW9kx3vbgGOPj4rX4n/2IyQiS1zyxi988k+RtK8p6ebe0rNdTUN3eOAHkI6Cn7KjsuXRjThZ&#xA;MhkWR0Fa038clTB2KuxV2KuxV5/quuR+YhcaEX+oeYdNuTJYMGpHLNAWUcGPQsCfhP45gzyeJceU&#xA;gdnocGlOnrL9eGcal3gFR/NzUJ49J02wcgSXDGW4C9KxKBT5cn/DBrZHhAZ9gYQck5jkNh8f7GD+&#xA;TNQFh5o065Y8U9URuT0Cygxkn5Bsw8EuGYLvO0cXiYJx8vu3e5avpqanp01jJI0cc/FZGTqUDAsv&#xA;+yUcfpzcThxCnhdPmOKYmBZCJgnhuIlmhcSROKq6moOSBvk1yiYmjsV+Fi7FXYq8R/5yD1Jm1TSt&#xA;MBokMD3LL4mV+AP0ekcqyFy9MNiXklQSRXcdRlTkt4qoegxYgkekW5Ed8UUquxVCQKkdAMUrEiJP&#xA;OX4n7DsMUKuKVnqxk05CvhXFWmgjKsAoBPcYrTUMhNUf+8Xr7++KF5dQwUn4juBilwkQsVDDkOox&#xA;VzIjGrKCfcYq4OhNAwJ8MVWvMiHia18Bviqm8iSf7qZ/AkU/HFD1P8g7Ly3JrN2b6JW1pUrYpIA0&#xA;YjFOZStf3g/V075Zjpx8915PfcucR2KuxV2KuxV2KqcVzBLLNFHIGkt2CTIOqsyhwD81YHACCylA&#xA;gAkbHk+f/Md0z+ZtSuYmKn63K0bqaEcZDxII77ZpMp9ZPm+g6OFYIRP80fcjvNvmJtct9KnkINxD&#xA;btHc+8gcgn/ZKA305PNl4wD5NGg0fgGYHIyse5I7q2mtJ/Sk+GRQrbduShh+vMaMrFhzoTExY5Pa&#xA;vKXnBNeuDbxgD6vawvOxrVp3Hxgf5K0pm5wZ+M15PE6/s/wBZ6yNe7p80H5fvz5Xg0nQdWos14bi&#xA;kwaqrJ63wAnwcNWvjkcUvDAjLrbdq8X5ozzY+UeHbyrf5M0zLdK7FXYq8U/5yC0G6+sWWvxyR+l6&#xA;S2RiZqPzDvICo7ijmvhTKsg6uVp5dHj8UYRadSftHxOVOUvxV2KuxV2KqRhLsTI1V7KNh9OKFKRa&#xA;OKR/u0NSVG5wqiEdXUMu4OBK2SIPQg8XHRhiqz0GdqykGgoKfrxRS76vFxpxr3r3+/Faa9Aj7MjA&#xA;eFa4rTYtoeNCK+564rS5Io0+yKVxSvxVm35S69oOj+aYptVjIaUGK2veZCQs44kuvQhgaV7fqnAg&#xA;FqzRJGz6Sy9wHYq7FXYq7FUB5hmaHQNSmX7UdrO6/NY2OQymon3ORpI8WaA75D70t8oTWGpW5163&#xA;c/Wb6GGK+jrsJrcFSSPH4vupleAiQ4h15uT2hGeM+EfpiSY+4vDr1ma8nZvtGRy3zLHNPLm91jHp&#xA;HuU495EB3HIbfTkSmXJlfnLTS0aX8Y3T4Jv9Un4T9+2Yemn/AAuq7OzUeA/BHflLcRW2palcTyCK&#xA;2iteUsjGiijjcn783OiNEk9zR2/AyhAAXIy/QknnfzKNf1trmIFbSBfStQdiVBJ5keLE1ynUZeOV&#xA;9HN7M0X5fFwn6juXrfkjWn1fy3a3MrcrhAYbg9y8e1T7stG+nNpp8nFAF5HtPTeDnlEcuY+Ke5c4&#xA;DsVfOn5zeZn1bzZJYxtWz0mtvGo6GXrM3z5Dj/scombLnYIVG+9gWQbnYq7FXYq7FXYqsdWYfC3H&#xA;3pXFXRxiNOI398VdK3CNm8BtiroV4xKO9Kn6cVb5j1OHenL8aYquxV2KrXDFSFNG7HFVsUhYEMKO&#xA;uzDFXLERKpDlULDmDvQE7kYofX+hvavo1i1rP9atvq8QhuT1kUIAHPue+ZIdbLmjcKHYq7FXYqgd&#xA;dgNxouoW4+1NbTIAOvxRkfxyGQXEjyb9LLhyxl3SH3vCvL3mbVdBujPYyfC9PWgfeNwP5h/Eb5ps&#xA;WWUDYe81eix541MfHqEFeXEdzfz3IjMcc0rSekDXiGYtxDU7V60yEjZJb8cDGAjfIIzV9Fl0/wBO&#xA;eNjJay0MchFCCRUBvfKMeXi26tGn1IyWDtIM5lijurRo33jmSh+TDNeDRdFGRhKxzDzxBeq8unRM&#xA;376RVkiXo7Rkha/InNrx+nyejPCQJnoPvUJ4mhmkhf7cbFG+amhwA2LZxlxAHveiflnqN/Bod/DZ&#xA;Qmac3cART9lfW+F3b2VUrmx0kiImu95ztrDCWWJkaHCfs5D7XqObF5Z2Kvjy6uZbq6muZTylndpJ&#xA;D4s5LH8TmK7MBDO7eoqL1O7fLFKpirsVU0mVkLn4VrQHFV7MFBZjQDqcVWmReSr/ADdD2xVfirsV&#xA;U50LxMo6npipdDIZASV40NMVWSn05VkP2aFT+sYoVIS5jBf7R3xS0XInC1+EqT9OKrHkSWORR+zv&#xA;92KF1uihAwrVgK1xUNzF1QsnUbke2KXuP5BeZ3ubG70CZi31UfWbOvaJzSRfkrkH/ZZdjPRxNRHq&#xA;9byxxnYq7FXYqluq2Ukl1YXkV19We1lCuGPwSxzFUeJvdjTj/lUyucdwb5OTgygRlEji4h8iOv6/&#xA;J4nqWhi1803GkSH01EzpEf8AJYFoj9IK5pNQOAnye3w6riwDIN9v7UsvLK5s52huEKOOngR4g9xl&#xA;cZCQsOVjyxmLD0BrSK70pbaT7MkSivgaCh+g5ruKpW88Mhhk4h0KOW1aK0ikA/dVMa/7AD+uJgeH&#xA;i6EloM7kR1Suw0S2tbua8b95czO7hiKBA5Joo+nrhnlJAHRysuplKIjyiGDai4k1C6kX7LyyMPkW&#xA;JzYQFRDvcIqAHkEx0LW9UtojpNkVjW/ni9VwPjahoqV/l332zIx5JD0jq4+q02OR8SX8ET7nv+bt&#xA;8+dirBPOn5WaVq+jSW2iwW2m30lyly8/CgcgOpVioLAfvCaDvkJQtuhmIO7wDzBo0Wj69e6ek/1l&#xA;rV/RkmA4gugAkAG+weoykinMibFoHAydiqFa3k4Fa/AtSoHfCil8jh7Ut7CvzrgVcluilWqdugrt&#xA;XFaVcUqUrsjK1ap0YfxxQqGtDTr2xSh4Zo0jRSaseo+ZwoROBLsVWSRJJTkK06Yqse3VqcTw2oad&#xA;xiilVQAoA6AUGKXEVFMVes/kzocejyR6/cXDSLc27wxwRp9nlIKlmJ3p6fhmPLWwhKjbGeCU47Pb&#xA;opEljWSM8kcAqfY5sIyEhY5OukCDRXZJDsVdiqReebSW68p6lFFX1FjEq06/uXWXb/gMp1EbgXP7&#xA;LyCGogT3189nid9rmoX1xb3N04kurZVVbgj42CGq8z+0R49c02SRnze3xaaEAYx2jLp+pnHp2OrW&#xA;EbyIJIZV5LXqpPWh7EdM1VmBdFc8UzWxCYaTaVmtbXkWAKJyPUqNq/OmTwQ48gHeXHz5NpSZXNpc&#xA;Vxa3lqoClZi8R7BmRW+7emb+ekjOE4D+dY+QLqY5zGUZeX6WLavZSW9xcWsTcGG0ch3oCNm7eOaH&#xA;UYvDyGPQO10+QSAkWNf4d07TrG6nNZZRDJ+8em1VI+EDxw+NKRAdn+cnkmByFhi+jxX8uqWsen1F&#xA;80ii3I6h67N3pTrXtmxgCZCubtdRKAxyM/prd9BaXaXNpYQwXV095Og/eXDgAs3foBt4ZvIRIFE2&#xA;+eZ8kZzJiOEdyKyTU7FXyNr8ry69qUrmryXUzMfEmRicxjzdlHkErtiTCpJqd6n6cCQq4pdiqi1u&#xA;pYmpCk1ZexOKKVsUqcshjCn9kmjHFUOscxiIAqsm9D23woRY6YEqc0YMbcQA3Xb2xQUXY2d1ewzS&#xA;28ZkS3jM05H7KAgEn78jKYFX1ZAWhJmKlGrsGo305JiulconICoB3+WKVw33xVYXImVf2WBp8xir&#xA;vj9fvw47+Fa4q908qWkln5bsIZgUdYgzq2xBcl6H5cs0GolcyXKgNno+m3VlBY28LXMXPgDTmv7W&#xA;/j75vdPkhCEYmQuu91WaEpSJAKY5mOM7FUs13zFpuiQJJdl3llJW3toV5yyEbnitRsO5JAHjkJ5B&#xA;EWTQZwxmRoMSvfzQv4lLJ5cmlgoeVbiLnT/UUSV298xhrsRNW5P5LIN3k7X9jd3c0trC0EHqFltn&#xA;apRSaheQpWnSuYOfFwnbkXsez9YM2Pc+sc/1s78uW0UVt6lpdGWzl+IQuAWRu45A/ftmozk3uN3B&#xA;1eTiPqHqHXvZr5YS2mlZJIx60NJIpRUN1oQfHrmx7KEJSoj1R3BdJrTICwdiyRpreNiGdEY7kEgH&#xA;N/TrGL+aZ9MVvX+swmVm4t+8Wqqq99/HNJ2pg34gLJP6HY6LJ0PIMF806nanTGihuoiZCAURgzMA&#xA;a02Ow981+nwT4vpLutFkxjJciPmEg8secIPLmpvdnSzqM3DhC/q+kI+X2iP3clSRtXbvm80uLh9R&#xA;5tHbOtGT93A+nr5vXdN/Mnyje20Mr3y2ssigvBOCrIx2Kk047fPM/iDzpgWR211a3UKz2syTwv8A&#xA;YljYOp+RFRhYKuKvlDzLpV1D5v1HTFQvcG9kiiQdXLyH06f6wYZjEbuxifTar+YHlN/LetyaXSsZ&#xA;hikhk/n5IOTf8jFYYZCijHLiFseifnGrd6b/ADyLYvxV2KuxVqleuKt4q7FVsjhELHtir1z8tdPi&#xA;j8qh2jWl7JI7ggfEtfTof+BOabWz/ee5yMQ2Yb5j/L/VrfUjb2Nu9xZXDfuJUBbgCfsyU+zx8Ttm&#xA;dh1cTGyaIa5YzaQ6tpVzpl9NYXQ/eRHjyps69mHsw3zIx5BONhgRWzLbT8tri4k026gdP0bcxwzT&#xA;xuSJIwyqzoNt/b/M5hy1oFg/ULbBjR035TxAXbRXfJyP9AVlpxNa/vGHXb4dh75WO0OVj3p8JHeR&#xA;/KmqaVaXcl3HGl1cOgWKQh1CR1NfgJFSWyrWagTI4ejPFCubJjZXNww+uSAxj/dMVQp+ZO+YNd7d&#xA;xAckaqqihVFFAoAOwwsWZ6EJBpcHqVrQ8a/y1NPwzpNDfhC3TaqvENI/Mtx3mWvzPdeY7+4k39Nx&#xA;bQA/sxxAVA/1pCx+7wzQ9pZCcnD0DudDACF96DzXuawTX1tf0zcNBGEOwkI7uB8RzfaMHwxbq9QR&#xA;xmkBmU0OxV2KuxV2KphomlHULrixKwR/FKw6+wHzzG1Wo8OPmW7Bi4z5MyisLKKMRpAgQduIP31z&#xA;SSyzJskuzGOI2pEaNfN5e1SK7tj6enzyLHqNsPscXPESqOzIT27ZsdDq5GXDLdwdXpxw8Qes5uXU&#xA;pTL5U8uza6mvS2Mb6tGoVLo8qigoDxrw5AdGpXBQu2XGarogfOXkLQ/NkUC6h6kU1sf3VzAVWTif&#xA;tIeQYFT8tvvwSiCyhkMeSWeYfyg8o6vbW8cMR06a2jWKOe2oOSKKASKQQ5/yvte+AwBTHNIJPffk&#xA;H5cmaE2t7cWoRFSdaLJzZVoXFfsljueo8KYPDDMagpBqH/OPmpqSdO1aCYdluI3ip9Ker+rAcbMa&#xA;kdQkdx+SHnuI0jit7jfrHMB/ycCZHwyzGeKDP5PfmLX/AI5Nff6xbf8AVXHgKfGj3tp+Tv5iMwB0&#xA;oKD+0bi2oPukJx4Cvjx7070z8g/M0/xX97bWS02VeUz19wAi/wDDYRjLA6gdG7X/AJx98wXFqz3m&#xA;oW9tcK49KBQ0isAdyzilPYAH6MBxyX8xFmln5em8v2Fvpjt6gt0CicAqrk7kj6Tmh1mOUchtz8OQ&#xA;SjsqhWPQE/LMYAlttLda8oadrJja+tHaSLZJF5K3HrxJHUZkYp5Icgfk1y4T1TFYPQjWNU9NEAVF&#xA;pQAAUAyiQPVsBDsirsVdhVNtK0Ke4dZbhTHbjeh2ZvYe3vmfpdDKZuW0fvcTPqhEUObK1UKAqigA&#xA;oAOgGb4CnVEuwqhZNJ0qV2kksoHkY1Z2iQkk9ySMgcUSbIDMZJDYErDoeinrp9sf+eMf9Mj4MP5o&#xA;+SfGn3n5vONQ/JzULm/ubmO/gjjnleRI+DDirsSF222rh4GXiof/AJUpqn/Vyg/4B8PAviu/5Upq&#xA;n/Vyg/4B8eBfFd/ypTVP+rlB/wAA+PAviu/5Upqn/Vyg/wCAfHgXxXf8qU1T/q5Qf8A+PAvipppH&#xA;5aaxp1sYhNbSMzFmflIK9htwOYGp0UskrvZy8OsjAVSPXyPrH7UtuPk7n/jQZj/yXLvDb/KMe4qd&#xA;5+X2qXNrLbmeBfVUryq5pXvTiMni7OlGQNjZhPXxlEime5t3WOxV2KuxV2KuxV2KuxV2KuxV2Kux&#xA;V2KuxVx9+mKoeX9H/wC7fS/2XH+OUy8Prw/Y2Dj6WoN+ga/F9Vr3r6dcqP5f+h9jYPF/pfaiIPqF&#xA;f9H9Kv8AxXxr+GW4/D/hr4U1y4+tq+XNbsVdirsVdirsVdirsVdirsVdirsVdirsVf/Z</xmpGImg:image>
               </rdf:li>
            </rdf:Alt>
         </xmp:Thumbnails>
         <xmpTPg:MaxPageSize rdf:parseType="Resource">
            <stDim:w>773.570007</stDim:w>
            <stDim:h>558.520020</stDim:h>
            <stDim:unit>Pixels</stDim:unit>
         </xmpTPg:MaxPageSize>
         <xmpTPg:NPages>1</xmpTPg:NPages>
         <xmpTPg:HasVisibleTransparency>False</xmpTPg:HasVisibleTransparency>
         <xmpTPg:HasVisibleOverprint>False</xmpTPg:HasVisibleOverprint>
         <xmpTPg:PlateNames>
            <rdf:Seq>
               <rdf:li>Cyan</rdf:li>
               <rdf:li>Magenta</rdf:li>
               <rdf:li>Yellow</rdf:li>
               <rdf:li>Black</rdf:li>
            </rdf:Seq>
         </xmpTPg:PlateNames>
         <xmpTPg:SwatchGroups>
            <rdf:Seq>
               <rdf:li rdf:parseType="Resource">
                  <xmpG:groupName>Default Swatch Group</xmpG:groupName>
                  <xmpG:groupType>0</xmpG:groupType>
               </rdf:li>
            </rdf:Seq>
         </xmpTPg:SwatchGroups>
         <dc:format>image/svg+xml</dc:format>
      </rdf:Description>
   </rdf:RDF>
</x:xmpmeta>
                                                                                                    
                                                                                                    
                                                                                                    
                                                                                                    
                                                                                                    
                                                                                                    
                                                                                                    
                                                                                                    
                                                                                                    
                                                                                                    
                                                                                                    
                                                                                                    
                                                                                                    
                                                                                                    
                                                                                                    
                                                                                                    
                                                                                                    
                                                                                                    
                                                                                                    
                                                                                                    
                           
<?xpacket end="w"?>
  </metadata>
</svg>